<?xml version="1.0" encoding="UTF-8" standalone="no"?>
<svg width="24px" height="29px" viewBox="0 0 24 29" version="1.1" xmlns="http://www.w3.org/2000/svg" xmlns:xlink="http://www.w3.org/1999/xlink">
    <!-- Generator: Sketch 41.2 (35397) - http://www.bohemiancoding.com/sketch -->
    <title>Slice 1</title>
    <desc>Created with Sketch.</desc>
    <defs></defs>
    <g id="Page-1" stroke="none" stroke-width="1" fill="none" fill-rule="evenodd">
        <path d="M23.995,28.988 L0,28.988 L1.052,8.727 L22.942,8.727 L23.995,28.988 Z M21.402,10.35 L2.592,10.35 L1.839,27.365 L22.246,27.365 L21.402,10.35 Z M12.119,0.024 C15.18,0.024 17.684,2.528 17.684,5.588 L17.684,6.233 L16.061,6.233 L16.061,5.588 C16.061,3.415 14.293,1.647 12.119,1.647 L11.875,1.647 C9.702,1.647 7.934,3.415 7.934,5.588 L7.934,6.233 L6.311,6.233 L6.311,5.588 C6.311,2.528 8.814,0.024 11.875,0.024 L12.119,0.024 L12.119,0.024 Z" id="Shape" fill="#333333"></path>
    </g>
</svg>